<?xml version="1.0" encoding="UTF-8" standalone="no"?>
<!-- Created with Inkscape (http://www.inkscape.org/) -->

<svg
   version="1.1"
   id="svg2"
   width="1600"
   height="500"
   viewBox="0 0 1600 500"
   sodipodi:docname="2 (copia 1).svg"
   inkscape:version="1.1.1 (3bf5ae0d25, 2021-09-20)"
   xmlns:inkscape="http://www.inkscape.org/namespaces/inkscape"
   xmlns:sodipodi="http://sodipodi.sourceforge.net/DTD/sodipodi-0.dtd"
   xmlns:xlink="http://www.w3.org/1999/xlink"
   xmlns="http://www.w3.org/2000/svg"
   xmlns:svg="http://www.w3.org/2000/svg">
  <defs
     id="defs6">
    <linearGradient
       id="linearGradient14655"
       y2="134.60001"
       spreadMethod="reflect"
       gradientUnits="userSpaceOnUse"
       y1="81.204002"
       gradientTransform="matrix(0.95395,0,0,1.0483,-5.2000996,-35.548614)"
       x2="289.81"
       x1="237.14999"
       inkscape:collect="always">
      <stop
         id="stop14657"
         style="stop-color:#c96b00"
         offset="0" />
      <stop
         id="stop14658"
         style="stop-color:#400000"
         offset="1" />
    </linearGradient>
    <linearGradient
       id="linearGradient14650"
       y2="158.06"
       gradientUnits="userSpaceOnUse"
       y1="105.03"
       gradientTransform="matrix(0.97889,0,0,1.0216,-5.2000996,-35.548614)"
       x2="314.26999"
       x1="259.53"
       inkscape:collect="always">
      <stop
         id="stop14647"
         style="stop-color:#ffdba2"
         offset="0" />
      <stop
         id="stop14648"
         style="stop-color:#803900"
         offset="1" />
    </linearGradient>
    <linearGradient
       id="linearGradient14651"
       y2="67.748001"
       gradientUnits="userSpaceOnUse"
       y1="130.42999"
       gradientTransform="matrix(0.93892,0,0,1.0651,-5.2000996,-35.548614)"
       x2="53.958"
       x1="112.61"
       inkscape:collect="always">
      <stop
         id="stop14653"
         style="stop-color:#ffdba2"
         offset="0" />
      <stop
         id="stop14654"
         style="stop-color:#803900"
         offset="1" />
    </linearGradient>
    <linearGradient
       id="linearGradient15293"
       y2="197.67"
       gradientUnits="userSpaceOnUse"
       y1="176.13"
       gradientTransform="matrix(0.96899,0,0,1.032,-5.2000996,-35.548614)"
       x2="158.91"
       x1="138.36"
       inkscape:collect="always">
      <stop
         id="stop15295"
         style="stop-color:#ffffff;stop-opacity:0"
         offset="0" />
      <stop
         id="stop15296"
         style="stop-color:#7d4129;stop-opacity:.73725"
         offset="1" />
    </linearGradient>
    <linearGradient
       inkscape:collect="always"
       xlink:href="#linearGradient14655"
       id="linearGradient1919"
       gradientUnits="userSpaceOnUse"
       gradientTransform="matrix(0.95395,0,0,1.0483,-5.2000996,-35.548614)"
       x1="237.14999"
       y1="81.204002"
       x2="289.81"
       y2="134.60001"
       spreadMethod="reflect" />
    <linearGradient
       inkscape:collect="always"
       xlink:href="#linearGradient14650"
       id="linearGradient1921"
       gradientUnits="userSpaceOnUse"
       gradientTransform="matrix(0.97889,0,0,1.0216,-5.2000996,-35.548614)"
       x1="259.53"
       y1="105.03"
       x2="314.26999"
       y2="158.06" />
    <linearGradient
       inkscape:collect="always"
       xlink:href="#linearGradient14651"
       id="linearGradient1923"
       gradientUnits="userSpaceOnUse"
       gradientTransform="matrix(0.93892,0,0,1.0651,-5.2000996,-35.548614)"
       x1="112.61"
       y1="130.42999"
       x2="53.958"
       y2="67.748001" />
    <linearGradient
       inkscape:collect="always"
       xlink:href="#linearGradient15293"
       id="linearGradient1925"
       gradientUnits="userSpaceOnUse"
       gradientTransform="matrix(0.96899,0,0,1.032,-5.2000996,-35.548614)"
       x1="138.36"
       y1="176.13"
       x2="158.91"
       y2="197.67" />
  </defs>
  <sodipodi:namedview
     id="namedview4"
     pagecolor="#505050"
     bordercolor="#eeeeee"
     borderopacity="1"
     inkscape:pageshadow="0"
     inkscape:pageopacity="0"
     inkscape:pagecheckerboard="0"
     showgrid="false"
     fit-margin-top="0"
     fit-margin-left="0"
     fit-margin-right="0"
     fit-margin-bottom="0"
     inkscape:zoom="0.4028125"
     inkscape:cx="589.60434"
     inkscape:cy="90.612878"
     inkscape:window-width="1883"
     inkscape:window-height="1052"
     inkscape:window-x="0"
     inkscape:window-y="0"
     inkscape:window-maximized="1"
     inkscape:current-layer="g8" />
  <g
     inkscape:groupmode="layer"
     inkscape:label="Image"
     id="g8"
     transform="translate(117.32781,14.915837)">
    <rect
       style="fill:#ff80b2;fill-opacity:1;stroke:none;stroke-width:12.8257"
       id="rect929"
       width="1600"
       height="500"
       x="-117.32781"
       y="-14.915837"
       rx="88.107758"
       ry="76.736252" />
    <g
       id="g943-3-1"
       transform="matrix(0.98812914,0.513675,-0.513675,0.98812914,124.23464,-43.289566)">
      <path
         id="path14022-6-8"
         style="fill:url(#linearGradient1919);fill-rule:evenodd"
         inkscape:connector-curvature="0"
         d="m 284.7339,-14.030614 -12.27,1.754 -13.45,6.4309996 -17.53,13.448 -32.74,36.2500004 -50.85,48.529 -66.056,74.840004 -59.622,74.84 -14.614,29.81 2.338,15.79 7.599,9.94 6.43,5.85 8.768,5.84 22.797,2.34 19.29,-13.45 30.98,-43.85 1.17,-12.27 14.03,-27.48 28.06,-33.33 94.11,-98.230004 30.39,-30.399 14.03,-11.694 6.43,-4.092 9.94,-18.125 -0.59,-9.3550004 -9.93,-14.615 -9.36,-7.6009996 -9.35,-1.169 z" />
      <path
         id="path14023-1-9"
         style="fill:url(#linearGradient1921);fill-rule:evenodd"
         inkscape:connector-curvature="0"
         d="m 115.8039,254.32939 5.26,9.36 13.45,9.35 14.02,2.34 16.37,-2.92 23.38,-6.43 28.65,-14.62 33.31,-22.8 32.15,-31.57 27.48,-34.5 21.04,-35.67 13.44,-33.320004 0.59,-28.65 -13.45,-20.465 -17.53,-7.6 -9.94,-0.585 -22.8,16.956 -28.64,30.404 -42.08,43.260004 -22.8,24.56 -39.17,41.51 -16.95,21.05 -10.52,18.71 -5.26,9.36 z" />
      <path
         id="path14024-0-6"
         style="fill:url(#linearGradient1923);fill-rule:evenodd"
         inkscape:connector-curvature="0"
         d="m 219.2639,30.989386 0.59,-9.355 -12.28,-19.8790004 -22.21,-4.093 -20.46,9.355 -25.72,26.3110004 -26.3,36.253 -33.905,32.740004 -30.396,28.06 -23.382,22.81 -11.695,19.87 -2.922,11.11 v 22.22 l 5.845,15.2 8.768,9.36 11.106,4.09 24.551,-27.48 33.903,-43.85 36.823,-41.51 54.95,-57.886004 22.8,-21.048 9.93,-12.278 z" />
      <path
         id="path14661-6-4"
         style="fill:#ffffff;fill-opacity:0.53438;fill-rule:evenodd"
         inkscape:connector-curvature="0"
         d="m 28.0169,299.30939 1.042,-22.92 4.166,16.67 15.624,-17.71 -11.458,22.92 h 12.499 l -10.415,4.16 8.332,1.05 h -14.582 z" />
      <path
         id="path14662-3-3"
         style="fill:#d4c800;fill-rule:evenodd"
         inkscape:connector-curvature="0"
         d="m 34.2669,248.25939 c 5.639,7.61 16.322,13.01 25.292,7.97 5.72,-9.19 -7.353,-17.07 -8.532,-26.03 -2.739,-11.82 11.823,-19.92 21.675,-22.72 9.285,-2 18.824,0.92 28.238,0.21 9.4,-0.61 17.74,-8.85 22.49,-16.78 3.8,-7.43 8.65,-15.44 8.28,-23.98 0.55,-9.75 -11.65,-12.59 -11.36,-22.13 -0.95,-8.13 11.94,-8.16 16.93,-13 7.99,-2.76 16.81,-3.69 25.29,-4.17 9.24,0.24 19.86,3 28.26,-1.21 6.39,-7.8 12.02,-21.06 5.95,-30.540004 -3.67,-7.6 -6.57,-22.9 1.86,-27.37 9.17,-3.66 20.15,3.26 28.62,-3.46 8.62,-4.566 18.24,-14.678 15.24,-25.195 -1.94,-7.917 -14.23,-17.715 -0.07,-19.683 8.22,-0.088 16.78,2.558 24.83,1.233 9.94,-0.516 12.35,-14.7420004 4.03,-19.5990004 -10.08,-8.885 -7.25,10.8920004 -16.98,8.16 -7.87,2.5290004 -16.75,1.7160004 -24.18,5.2580004 -13.76,5.297 -7.19,18.528 -2.82,27.702 -5,8.967 -18.11,7.379 -26.37,12.685 -9.61,3.202 -22.29,8.831 -21.48,20.949 -1.72,11.25 3.31,23.06 0.55,33.890004 -3.5,7.89 -13.83,4.35 -20.78,6.82 -10.26,1.54 -20.41,3.91 -29.45,9.16 -9.5,4.55 -16.19,13.26 -22.86,21.13 -7.35,9.95 9.97,20.11 4.9,28.98 -10.11,9.09 -24.822,8.14 -36.771,13.62 -12.898,4.11 -23.514,12.8 -33.491,21.63 -4.445,10.61 -9.985,21.82 -7.528,33.63 0.039,0.47 0.197,2.36 0.237,2.84 z" />
      <path
         id="path14666-2-3"
         style="fill:#000000;fill-opacity:0.52188;fill-rule:evenodd"
         inkscape:connector-curvature="0"
         d="m 60.4799,244.96939 -6.629,-7.37 -3.682,-4.42 2.209,-11.79 8.838,-9.57 10.312,-3.69 h 10.311 l -13.258,5.9 -6.628,4.42 -4.419,4.42 -3.683,6.63 1.473,7.36 z" />
      <path
         id="path14667-0-3"
         style="fill:#000000;fill-opacity:0.49062;fill-rule:evenodd"
         inkscape:connector-curvature="0"
         d="m 99.5199,208.12939 8.83,-0.73 12.52,-5.16 9.58,-14 4.42,-16.2 -0.74,-10.32 -7.36,-8.1 -2.95,-8.11 5.89,-5.89 6.63,-2.95 12.52,-5.15 h 14.73 l 8.84,-0.74 8.1,-1.47 -13.99,-1.48 -20.62,1.48 -14,5.15 -8.84,5.16 -2.94,5.89 5.89,8.11 4.42,9.57 0.74,7.37 -4.42,13.26 -6.63,12.53 -10.31,9.57 z" />
      <path
         id="path14668-6-8"
         style="fill:#000000;fill-opacity:0.49062;fill-rule:evenodd"
         inkscape:connector-curvature="0"
         d="m 196.7439,118.98939 2.94,-8.84 v -7.36 l -2.21,-8.110004 -3.68,-10.31 v -8.84 l 4.42,-5.89 7.36,-2.22 h 10.31 l 5.16,0.74 8.1,-3.68 11.79,-10.316 -6.63,8.841 -9.58,6.635 -8.84,2.21 -11.78,-1.48 -3.68,1.48 -2.95,6.63 0.74,8.1 2.94,12.52 v 11.050004 z" />
      <path
         id="path14669-1-6"
         style="fill:#000000;fill-opacity:0.49062;fill-rule:evenodd"
         inkscape:connector-curvature="0"
         d="m 240.1939,32.801386 -2.21,-5.156 5.16,-3.684 7.36,-0.737 8.84,2.211 h 12.52 l 5.16,-7.367 v -5.894 l -3.69,8.104 -2.21,0.736 -11.04,1.474 -12.52,-2.21 -5.9,0.736 -5.15,0.737 0.73,5.894 z" />
      <path
         id="path15292-5-0"
         style="fill:url(#linearGradient1925);fill-rule:evenodd"
         inkscape:connector-curvature="0"
         d="m 34.1419,249.45939 c 5.639,7.62 16.322,13.01 25.293,7.97 5.72,-9.19 -7.354,-17.07 -8.533,-26.03 -2.739,-11.82 11.823,-19.92 21.676,-22.72 9.285,-2 18.823,0.92 28.242,0.21 9.39,-0.61 17.74,-8.85 22.48,-16.78 3.81,-7.42 8.65,-15.44 8.29,-23.97 0.55,-9.76 -11.65,-12.6 -11.37,-22.14 -0.94,-8.13 11.95,-8.16 16.94,-13 7.98,-2.76 16.8,-3.69 25.28,-4.17 9.24,0.24 19.86,3 28.27,-1.21 6.39,-7.8 12.01,-21.06 5.94,-30.540004 -3.66,-7.59 -6.56,-22.9 1.86,-27.36 9.17,-3.67 20.15,3.26 28.63,-3.46 8.62,-4.575 18.23,-14.687 15.23,-25.204 -1.94,-7.917 -14.22,-17.715 -0.06,-19.683 8.21,-0.088 16.77,2.558 24.82,1.233 9.94,-0.516 12.35,-14.7420004 4.04,-19.5990004 -10.09,-8.885 -7.25,10.8920004 -16.99,8.1600004 -7.86,2.529 -16.75,1.716 -24.17,5.258 -13.76,5.297 -7.19,18.528 -2.83,27.702 -4.99,8.967 -18.11,7.379 -26.36,12.685 -9.61,3.202 -22.3,8.828 -21.49,20.948 -1.71,11.25 3.32,23.060004 0.55,33.890004 -3.5,7.89 -13.83,4.35 -20.77,6.82 -10.26,1.54 -20.42,3.91 -29.45,9.16 -9.5,4.55 -16.19,13.27 -22.86,21.13 -7.35,9.95 9.96,20.11 4.89,28.98 -10.1,9.09 -24.816,8.14 -36.766,13.62 -12.898,4.11 -23.514,12.8 -33.491,21.63 -4.445,10.61 -9.985,21.82 -7.528,33.63 0.04,0.47 0.197,2.37 0.237,2.84 z" />
      <path
         id="path15297-5-4"
         style="fill:#ffffff;fill-opacity:0.44688;fill-rule:evenodd"
         inkscape:connector-curvature="0"
         d="m 39.1209,233.91939 -2.21,8.84 2.946,8.1 7.366,1.47 2.946,-3.68 -5.893,-5.89 z" />
      <path
         id="path15300-4-8"
         style="fill:#ffffff;fill-opacity:0.43125;fill-rule:evenodd"
         inkscape:connector-curvature="0"
         d="m 111.3039,142.56939 -4.42,5.15 1.47,9.58 4.42,10.32 v 8.84 l -2.94,3.68 6.63,-8.1 2.2,-11.79 -2.94,-8.11 -3.68,-5.15 z" />
      <path
         id="path15301-7-8"
         style="fill:#ffffff;fill-opacity:0.43125;fill-rule:evenodd"
         inkscape:connector-curvature="0"
         d="m 179.8039,75.531386 -0.74,18.91 0.74,15.300004 -4.42,5.41 h -5.16 l 8.1,0.9 7.37,-3.6 2.21,-11.71 -0.74,-8.100004 -2.95,-11.71 z" />
      <path
         id="path15302-6-8"
         style="fill:#ffffff;fill-opacity:0.43125;fill-rule:evenodd"
         inkscape:connector-curvature="0"
         d="m 223.2539,26.171386 0.74,8.841 1.47,5.893 -1.47,6.63 -5.16,2.21 -2.95,0.737 8.84,0.737 6.63,-2.947 2.21,-8.84 -3.68,-8.104 -2.21,-5.157 -1.47,-7.367 z" />
      <path
         id="path15304-5-9"
         style="fill:#009c00;fill-rule:evenodd"
         inkscape:connector-curvature="0"
         d="m 54.3279,166.75939 -5.77,15.23 5.049,8.7 -11.54,5.07 1.442,9.43 h 7.213 l 9.376,-6.53 12.982,-7.25 17.31,-23.2 12.98,-15.22 13.71,-15.95 23.08,-21.75 35.34,-38.430004 2.88,-7.97 6.49,-5.803 7.21,-4.35 21.64,-21.025 2.16,-5.8 -1.44,-9.425 -11.54,2.9 -7.21,10.875 -19.47,0.725 -8.66,10.875 2.89,7.25 -18.03,1.45 -12.99,2.9 -7.21,10.878 1.44,7.97 -10.81,4.35 -11.54,2.9 -10.82,17.400004 0.72,12.33 -8.657,10.15 -7.933,-0.73 -15.867,-2.17 -5.049,10.87 -1.442,10.88 3.606,10.15 -7.934,5.07 -7.934,-0.72 0.722,6.52 z" />
      <path
         id="path15926-6-7"
         style="fill:#ffffff;fill-opacity:0.45;fill-rule:evenodd"
         inkscape:connector-curvature="0"
         d="m 53.8509,192.65939 v 8.11 l 8.102,-3.69 z" />
      <path
         id="path15927-9-7"
         style="fill:#ffffff;fill-opacity:0.53125;fill-rule:evenodd"
         inkscape:connector-curvature="0"
         d="m 56.7969,169.82939 10.311,9.57 0.737,8.11 0.736,-14 -5.155,-14 -8.838,1.47 -2.21,1.48 z" />
      <path
         id="path15928-3-6"
         style="fill:#000000;fill-opacity:0.27812;fill-rule:evenodd"
         inkscape:connector-curvature="0"
         d="m 74.4739,143.29939 11.047,2.95 2.946,-8.1 -5.892,-9.58 -9.574,-2.95 -3.683,8.84 z" />
      <path
         id="path15929-7-4"
         style="fill:#ffffff;fill-opacity:0.44688;fill-rule:evenodd"
         inkscape:connector-curvature="0"
         d="m 90.6769,144.03939 -10.311,8.84 -8.838,-5.89 -0.737,-5.16 z" />
      <path
         id="path15930-4-3"
         style="fill:#ffffff;fill-opacity:0.575;fill-rule:evenodd"
         inkscape:connector-curvature="0"
         d="m 106.1399,141.08939 -4.42,-8.84 16.94,-11.05 2.21,7.37 z" />
      <path
         id="path15931-52-0"
         style="fill:#000000;fill-opacity:0.5375;fill-rule:evenodd"
         inkscape:connector-curvature="0"
         d="m 112.0439,93.209386 -8.84,10.310004 11.78,4.42 10.31,-16.200004 z" />
      <path
         id="path15932-5-3"
         style="fill:#000000;fill-opacity:0.55313;fill-rule:evenodd"
         inkscape:connector-curvature="0"
         d="m 146.6539,87.319386 2.21,13.260004 11.79,-11.790004 -7.37,-12.52 z" />
      <path
         id="path15933-4-0"
         style="fill:#000000;fill-opacity:0.4625;fill-rule:evenodd"
         inkscape:connector-curvature="0"
         d="m 167.2739,59.322386 -0.73,8.099 13.99,-3.679 -5.15,-8.103 z" />
      <path
         id="path15934-7-9"
         style="fill:#ffffff;fill-opacity:0.60938;fill-rule:evenodd"
         inkscape:connector-curvature="0"
         d="m 174.6439,43.115386 9.57,8.104 5.16,-3.684 v -5.893 z" />
      <path
         id="path15935-4-2"
         style="fill:#000000;fill-opacity:0.29063;fill-rule:evenodd"
         inkscape:connector-curvature="0"
         d="m 204.8439,28.381386 2.94,6.631 5.9,-1.474 v -8.84 z" />
      <path
         id="path15936-4-5"
         style="fill:#000000;fill-opacity:0.27812;fill-rule:evenodd"
         inkscape:connector-curvature="0"
         d="m 63.4259,158.03939 10.311,17.68 8.102,-5.89 -5.156,-7.37 -2.946,4.42 z" />
      <path
         id="path16558-3-4"
         style="fill:#000000;fill-opacity:0.33125;fill-rule:evenodd"
         inkscape:connector-curvature="0"
         d="m 52.3779,194.13939 -2.209,5.15 -2.946,5.9 -0.737,-10.32 z" />
      <path
         id="path17180-0-0"
         style="fill:#000000;fill-opacity:0.33125;fill-rule:evenodd"
         inkscape:connector-curvature="0"
         d="m 86.9939,144.77939 9.576,11.78 5.89,-13.99 -7.36,5.89 z" />
      <path
         id="path17181-7-5"
         style="fill:#ffffff;fill-opacity:0.5625;fill-rule:evenodd"
         inkscape:connector-curvature="0"
         d="m 120.1439,101.30939 13.25,5.9 5.16,5.89 -2.21,-10.31 5.89,-18.420004 -10.31,16.210004 z" />
      <path
         id="path17182-8-9"
         style="fill:#000000;fill-opacity:0.33125;fill-rule:evenodd"
         inkscape:connector-curvature="0"
         d="m 117.1939,121.93939 0.74,6.63 -11.05,10.31 0.74,4.42 17.67,-16.2 -4.42,-3.69 z" />
      <path
         id="path17183-6-4"
         style="fill:#000000;fill-opacity:0.33125;fill-rule:evenodd"
         inkscape:connector-curvature="0"
         d="m 134.8739,91.739386 19.15,-1.48 -14.73,-20.62 4.42,9.57 z" />
      <path
         id="path17184-8-6"
         style="fill:#ffffff;fill-opacity:0.59375;fill-rule:evenodd"
         inkscape:connector-curvature="0"
         d="m 165.8039,60.059386 -13.26,0.737 v 11.785 l 5.9,-1.47 1.47,-7.369 z" />
      <path
         id="path17186-8-9"
         style="fill:#000000;fill-opacity:0.48437;fill-rule:evenodd"
         inkscape:connector-curvature="0"
         d="m 180.5339,45.325386 6.63,12.524 12.52,-11.05 -8.1,-5.894 -2.95,7.367 z" />
    </g>
    <g
       aria-label="A SOLO $99"
       id="text2570"
       style="font-size:125.355px;line-height:1.25;font-family:'Russo One';-inkscape-font-specification:'Russo One';word-spacing:0px;fill:#ff0000;stroke-width:8.54693">
      <path
         d="m 441.34522,436.33942 h -24.44423 l 33.21908,-87.74851 h 25.071 l 33.21907,87.74851 h -24.44422 l -5.64098,-15.66938 h -31.33875 z m 11.28195,-31.96553 h 20.0568 l -10.0284,-29.45843 z"
         style="fill:#000000"
         id="path10096" />
      <path
         d="m 571.08744,376.16901 q 0,7.52131 7.5213,7.52131 h 22.5639 q 12.28479,0 18.05112,5.76633 5.76633,5.76633 5.76633,18.05112 v 6.26775 q 0,12.28479 -5.76633,18.05112 -5.76633,5.76633 -18.05112,5.76633 -3.76065,0 -8.02272,-0.12536 -4.13672,-0.12535 -8.52414,-0.37606 -4.26207,-0.12536 -8.6495,-0.37607 -4.26207,-0.12535 -8.14807,-0.37606 -9.15092,-0.50142 -18.17648,-1.25355 v -16.92293 q 9.15092,0.50142 17.80041,1.00284 7.39595,0.37607 15.29331,0.62678 7.89737,0.25071 13.41299,0.25071 2.88316,0 4.51278,-1.62962 1.75497,-1.75497 1.75497,-4.63813 v -11.28195 h -28.83165 q -13.16228,0 -19.17932,-5.89169 -5.89168,-6.01704 -5.89168,-19.17932 v -3.76065 q 0,-13.16227 5.89168,-19.05396 6.01704,-6.01704 19.17932,-6.01704 h 43.9996 v 17.5497 h -38.9854 q -7.5213,0 -7.5213,7.5213 z"
         id="path10098" />
      <path
         d="m 692.68157,372.40836 q 0,-7.5213 -7.5213,-7.5213 h -21.31035 q -7.5213,0 -7.5213,7.5213 v 40.11361 q 0,7.5213 7.5213,7.5213 h 21.31035 q 7.5213,0 7.5213,-7.5213 z m 22.5639,40.11361 q 0,13.16227 -6.01704,19.17931 -5.89168,5.89169 -19.05396,5.89169 h -31.33875 q -13.16228,0 -19.17932,-5.89169 -5.89168,-6.01704 -5.89168,-19.17931 v -40.11361 q 0,-13.16227 5.89168,-19.05396 6.01704,-6.01704 19.17932,-6.01704 h 31.33875 q 13.16228,0 19.05396,6.01704 6.01704,5.89169 6.01704,19.05396 z"
         id="path10100" />
      <path
         d="m 750.34481,418.78972 h 45.75458 v 17.5497 h -68.31848 v -87.74851 h 22.5639 z"
         id="path10102" />
      <path
         d="m 861.28396,372.40836 q 0,-7.5213 -7.5213,-7.5213 h -21.31035 q -7.5213,0 -7.5213,7.5213 v 40.11361 q 0,7.5213 7.5213,7.5213 h 21.31035 q 7.5213,0 7.5213,-7.5213 z m 22.5639,40.11361 q 0,13.16227 -6.01704,19.17931 -5.89169,5.89169 -19.05396,5.89169 h -31.33875 q -13.16228,0 -19.17932,-5.89169 -5.89168,-6.01704 -5.89168,-19.17931 v -40.11361 q 0,-13.16227 5.89168,-19.05396 6.01704,-6.01704 19.17932,-6.01704 h 31.33875 q 13.16227,0 19.05396,6.01704 6.01704,5.89169 6.01704,19.05396 z"
         id="path10104" />
      <path
         d="m 966.78841,344.17942 q 0,11.52 11.52,11.52 h 26.68799 q 18.816,0 27.648,8.832 8.832,8.832 8.832,27.648 v 9.6 q 0,18.816 -8.832,27.648 -8.64,8.832 -27.456,8.832 h -5.37599 l 1.53599,17.28 h -28.79999 l 1.92,-18.24 q -8.064,-0.384 -15.36,-0.96 -7.296,-0.384 -12.864,-0.768 -6.528,-0.576 -12.288,-1.152 v -25.92 q 11.904,0.768 23.424,1.536 9.792,0.576 20.736,0.96 10.944,0.384 19.2,0.384 4.41599,0 6.91199,-2.496 2.688,-2.688 2.688,-7.104 v -19.2 h -36.28799 q -20.16,0 -29.376,-9.024 -9.024,-9.216 -9.024,-29.376 v -3.84 q 0,-20.16 9.024,-29.184 9.216,-9.216 29.376,-9.216 h 3.84 l -1.92,-17.28 h 28.79999 l -1.91999,17.28 h 30.71999 v 26.88 h -51.83999 q -11.52,0 -11.52,11.52 z"
         style="fill:#000000"
         id="path10106" />
      <path
         d="m 1125.9563,384.49942 q -5.568,1.152 -11.328,1.92 -4.992,0.768 -10.752,1.344 -5.568,0.576 -10.56,0.576 h -13.44 q -13.056,0 -20.928,-7.872 -7.872,-7.872 -7.872,-20.928 v -24.96 q 0,-17.472 8.832,-25.92 8.832,-8.64 27.648,-8.64 h 36.48 q 18.816,0 27.648,8.64 8.832,8.448 8.832,25.92 v 67.2 q 0,18.816 -8.832,27.648 -8.832,8.832 -27.648,8.832 -9.408,0 -20.544,-0.576 -10.944,-0.576 -20.544,-1.344 -11.136,-0.768 -22.272,-1.92 v -25.92 q 10.56,0.768 20.928,1.536 8.832,0.576 18.24,0.96 9.6,0.384 16.512,0.384 4.416,0 6.912,-2.496 2.688,-2.688 2.688,-7.104 z m 0,-46.08 q 0,-11.52 -11.52,-11.52 h -17.28 q -11.52,0 -11.52,11.52 v 16.32 q 0,2.88 1.92,4.8 1.92,1.92 4.8,1.92 h 10.56 q 3.84,0 8.064,-0.192 4.224,-0.384 7.488,-0.768 3.84,-0.384 7.488,-0.96 z"
         style="font-size:192px"
         id="path10108" />
      <path
         d="m 1246.9162,384.49942 q -5.568,1.152 -11.328,1.92 -4.992,0.768 -10.752,1.344 -5.568,0.576 -10.56,0.576 h -13.44 q -13.056,0 -20.928,-7.872 -7.872,-7.872 -7.872,-20.928 v -24.96 q 0,-17.472 8.832,-25.92 8.832,-8.64 27.648,-8.64 h 36.48 q 18.816,0 27.648,8.64 8.832,8.448 8.832,25.92 v 67.2 q 0,18.816 -8.832,27.648 -8.832,8.832 -27.648,8.832 -9.408,0 -20.544,-0.576 -10.944,-0.576 -20.544,-1.344 -11.136,-0.768 -22.272,-1.92 v -25.92 q 10.56,0.768 20.928,1.536 8.832,0.576 18.24,0.96 9.6,0.384 16.512,0.384 4.416,0 6.912,-2.496 2.688,-2.688 2.688,-7.104 z m 0,-46.08 q 0,-11.52 -11.52,-11.52 h -17.28 q -11.52,0 -11.52,11.52 v 16.32 q 0,2.88 1.92,4.8 1.92,1.92 4.8,1.92 h 10.56 q 3.84,0 8.064,-0.192 4.224,-0.384 7.488,-0.768 3.84,-0.384 7.488,-0.96 z"
         style="font-size:192px"
         id="path10110" />
    </g>
  </g>
</svg>
