<?xml version="1.0" encoding="UTF-8" standalone="no"?>
<!-- Created with Inkscape (http://www.inkscape.org/) -->

<svg
   version="1.1"
   id="svg2"
   xml:space="preserve"
   width="800"
   height="800"
   viewBox="0 0 800 800"
   sodipodi:docname="fast-food-meals-publicdomainvectors.org.svg"
   inkscape:version="1.1.1 (3bf5ae0d25, 2021-09-20)"
   xmlns:inkscape="http://www.inkscape.org/namespaces/inkscape"
   xmlns:sodipodi="http://sodipodi.sourceforge.net/DTD/sodipodi-0.dtd"
   xmlns="http://www.w3.org/2000/svg"
   xmlns:svg="http://www.w3.org/2000/svg"><defs
     id="defs6"><clipPath
       clipPathUnits="userSpaceOnUse"
       id="clipPath16"><path
         d="M 0,600 H 600 V 0 H 0 Z"
         id="path14" /></clipPath></defs><sodipodi:namedview
     id="namedview4"
     pagecolor="#505050"
     bordercolor="#eeeeee"
     borderopacity="1"
     inkscape:pageshadow="0"
     inkscape:pageopacity="0"
     inkscape:pagecheckerboard="0"
     showgrid="false"
     inkscape:zoom="1.08125"
     inkscape:cx="400"
     inkscape:cy="547.97688"
     inkscape:window-width="1920"
     inkscape:window-height="1052"
     inkscape:window-x="0"
     inkscape:window-y="0"
     inkscape:window-maximized="1"
     inkscape:current-layer="g8" /><g
     id="g8"
     inkscape:groupmode="layer"
     inkscape:label="fast-food-meals-publicdomainvectors.org"
     transform="matrix(1.3333333,0,0,-1.3333333,0,800)"><path
       d="M 0,-0.297 H 600.297 V 600 H 0 Z"
       style="fill:#82970a;fill-opacity:1;fill-rule:evenodd;stroke:none"
       id="path18" /><path
       d="m 300.148,97.78 c 154.46,0 280.439,67.92 280.439,151.198 0,83.275 -125.979,151.196 -280.439,151.196 C 145.69,400.174 19.712,332.253 19.712,248.978 19.712,165.7 145.69,97.78 300.148,97.78"
       style="fill:#6b7d06;fill-opacity:1;fill-rule:evenodd;stroke:none"
       id="path20" /><path
       d="m 219.295,425.599 c 96.361,0 177.345,-39.086 200.448,-92.015 h 6.615 v -30.939 c 0,-6.731 -0.924,-13.333 -2.676,-19.77 L 52.769,229.566 v 30.941 l 89.604,156.321 c 23.782,5.653 49.739,8.771 76.922,8.771"
       style="fill:#e8b73c;fill-opacity:1;fill-rule:evenodd;stroke:none"
       id="path22" /><path
       d="m 219.295,456.539 c 114.358,0 207.063,-55.049 207.063,-122.955 0,-6.73 -0.924,-13.333 -2.676,-19.769 l -370.913,-53.308 -0.008,0.006 89.612,187.255 c 23.782,5.654 49.739,8.771 76.922,8.771"
       style="fill:#fccb4e;fill-opacity:1;fill-rule:evenodd;stroke:none"
       id="path24" /><path
       d="m 141.292,425.39 c -10.066,-2.263 -20.063,4.061 -22.327,14.129 -2.264,10.066 4.061,20.063 14.127,22.326 12.636,2.847 25.765,5.038 39.25,6.495 13.401,1.449 26.991,2.208 40.627,2.208 59.564,0 113.819,-13.774 153.383,-36.041 42.836,-24.11 69.333,-58.516 69.333,-97.503 0,-3.854 -0.299,-7.822 -0.881,-11.886 -0.577,-4.045 -1.413,-7.946 -2.491,-11.696 -2.829,-9.946 -13.186,-15.712 -23.13,-12.884 -9.947,2.83 -15.714,13.188 -12.885,23.133 0.664,2.311 1.157,4.555 1.465,6.718 0.291,2.036 0.442,4.24 0.442,6.615 0,24.416 -19.167,47.414 -50.154,64.854 -34.26,19.282 -81.994,31.209 -135.082,31.209 -12.792,0 -25.049,-0.659 -36.674,-1.915 -12.202,-1.318 -23.905,-3.261 -35.003,-5.762"
       style="fill:#ffdf8f;fill-opacity:1;fill-rule:evenodd;stroke:none"
       id="path26" /><path
       d="m 178.168,335.975 c 31.945,0 58.001,15.471 58.001,34.441 0,18.969 -26.056,34.44 -58.001,34.44 -31.946,0 -58.001,-15.471 -58.001,-34.44 0,-18.97 26.055,-34.441 58.001,-34.441"
       style="fill:#cf5830;fill-opacity:1;fill-rule:evenodd;stroke:none"
       id="path28" /><path
       d="m 176.185,370.804 c 5.341,0 9.698,2.587 9.698,5.759 0,3.173 -4.357,5.759 -9.698,5.759 -5.343,0 -9.7,-2.586 -9.7,-5.759 0,-3.172 4.357,-5.759 9.7,-5.759"
       style="fill:#ffdbcf;fill-opacity:1;fill-rule:evenodd;stroke:none"
       id="path30" /><path
       d="m 153.626,381.393 c 7.082,0 12.859,3.43 12.859,7.635 0,4.205 -5.777,7.636 -12.859,7.636 -7.083,0 -12.858,-3.431 -12.858,-7.636 0,-4.205 5.775,-7.635 12.858,-7.635"
       style="fill:#ffdbcf;fill-opacity:1;fill-rule:evenodd;stroke:none"
       id="path32" /><path
       d="m 139.32,361.005 c 4.544,0 8.251,2.201 8.251,4.9 0,2.699 -3.707,4.9 -8.251,4.9 -4.546,0 -8.252,-2.201 -8.252,-4.9 0,-2.699 3.706,-4.9 8.252,-4.9"
       style="fill:#ffdbcf;fill-opacity:1;fill-rule:evenodd;stroke:none"
       id="path34" /><path
       d="m 173.024,340.933 c 7.082,0 12.859,3.429 12.859,7.634 0,4.206 -5.777,7.637 -12.859,7.637 -7.081,0 -12.858,-3.431 -12.858,-7.637 0,-4.205 5.777,-7.634 12.858,-7.634"
       style="fill:#ffdbcf;fill-opacity:1;fill-rule:evenodd;stroke:none"
       id="path36" /><path
       d="m 203.109,354.057 c 6.539,0 11.871,3.166 11.871,7.048 0,3.883 -5.332,7.05 -11.871,7.05 -6.538,0 -11.871,-3.167 -11.871,-7.05 0,-3.882 5.333,-7.048 11.871,-7.048"
       style="fill:#ffdbcf;fill-opacity:1;fill-rule:evenodd;stroke:none"
       id="path38" /><path
       d="m 208.441,375.245 c 7.081,0 12.857,3.43 12.857,7.635 0,4.205 -5.776,7.636 -12.857,7.636 -7.083,0 -12.86,-3.431 -12.86,-7.636 0,-4.205 5.777,-7.635 12.86,-7.635"
       style="fill:#ffdbcf;fill-opacity:1;fill-rule:evenodd;stroke:none"
       id="path40" /><path
       d="m 184.809,392.607 c 3.54,0 6.429,1.715 6.429,3.817 0,2.103 -2.889,3.818 -6.429,3.818 -3.542,0 -6.43,-1.715 -6.43,-3.818 0,-2.102 2.888,-3.817 6.43,-3.817"
       style="fill:#ffdbcf;fill-opacity:1;fill-rule:evenodd;stroke:none"
       id="path42" /><path
       d="m 310.738,316.301 c 31.946,0 58.001,15.471 58.001,34.441 0,18.969 -26.055,34.441 -58.001,34.441 -31.945,0 -58,-15.472 -58,-34.441 0,-18.97 26.055,-34.441 58,-34.441"
       style="fill:#cf5830;fill-opacity:1;fill-rule:evenodd;stroke:none"
       id="path44" /><path
       d="m 308.755,351.131 c 5.343,0 9.699,2.587 9.699,5.76 0,3.172 -4.356,5.758 -9.699,5.758 -5.341,0 -9.7,-2.586 -9.7,-5.758 0,-3.173 4.359,-5.76 9.7,-5.76"
       style="fill:#ffdbcf;fill-opacity:1;fill-rule:evenodd;stroke:none"
       id="path46" /><path
       d="m 286.198,361.719 c 7.082,0 12.859,3.43 12.859,7.635 0,4.206 -5.777,7.636 -12.859,7.636 -7.081,0 -12.858,-3.43 -12.858,-7.636 0,-4.205 5.777,-7.635 12.858,-7.635"
       style="fill:#ffdbcf;fill-opacity:1;fill-rule:evenodd;stroke:none"
       id="path48" /><path
       d="m 271.891,341.332 c 4.545,0 8.252,2.2 8.252,4.899 0,2.699 -3.707,4.9 -8.252,4.9 -4.544,0 -8.251,-2.201 -8.251,-4.9 0,-2.699 3.707,-4.899 8.251,-4.899"
       style="fill:#ffdbcf;fill-opacity:1;fill-rule:evenodd;stroke:none"
       id="path50" /><path
       d="m 305.598,321.26 c 7.081,0 12.856,3.429 12.856,7.635 0,4.205 -5.775,7.635 -12.856,7.635 -7.083,0 -12.861,-3.43 -12.861,-7.635 0,-4.206 5.778,-7.635 12.861,-7.635"
       style="fill:#ffdbcf;fill-opacity:1;fill-rule:evenodd;stroke:none"
       id="path52" /><path
       d="m 335.681,334.383 c 6.539,0 11.871,3.167 11.871,7.049 0,3.883 -5.332,7.049 -11.871,7.049 -6.538,0 -11.871,-3.166 -11.871,-7.049 0,-3.882 5.333,-7.049 11.871,-7.049"
       style="fill:#ffdbcf;fill-opacity:1;fill-rule:evenodd;stroke:none"
       id="path54" /><path
       d="m 341.013,355.57 c 7.081,0 12.858,3.431 12.858,7.637 0,4.205 -5.777,7.635 -12.858,7.635 -7.083,0 -12.859,-3.43 -12.859,-7.635 0,-4.206 5.776,-7.637 12.859,-7.637"
       style="fill:#ffdbcf;fill-opacity:1;fill-rule:evenodd;stroke:none"
       id="path56" /><path
       d="m 317.379,372.934 c 3.543,0 6.431,1.715 6.431,3.818 0,2.102 -2.888,3.817 -6.431,3.817 -3.54,0 -6.428,-1.715 -6.428,-3.817 0,-2.103 2.888,-3.818 6.428,-3.818"
       style="fill:#ffdbcf;fill-opacity:1;fill-rule:evenodd;stroke:none"
       id="path58" /><path
       d="m 120.167,310.104 c -9.566,0 -17.323,-4.604 -17.323,-10.284 0,-5.681 7.757,-10.288 17.323,-10.288 9.566,0 17.321,4.607 17.321,10.288 0,5.68 -7.755,10.284 -17.321,10.284 m 0,6.936 c 16.015,0 28.998,-7.71 28.998,-17.22 0,-9.511 -12.983,-17.221 -28.998,-17.221 -16.017,0 -29,7.71 -29,17.221 0,9.51 12.983,17.22 29,17.22"
       style="fill:#240d05;fill-opacity:1;fill-rule:evenodd;stroke:none"
       id="path60" /><path
       d="m 252.738,415.142 c -9.566,0 -17.322,-4.604 -17.322,-10.285 0,-5.681 7.756,-10.287 17.322,-10.287 9.567,0 17.323,4.606 17.323,10.287 0,5.681 -7.756,10.285 -17.323,10.285 m 0,6.935 c 16.017,0 29,-7.709 29,-17.22 0,-9.511 -12.983,-17.22 -29,-17.22 -16.014,0 -28.999,7.709 -28.999,17.22 0,9.511 12.985,17.22 28.999,17.22"
       style="fill:#240d05;fill-opacity:1;fill-rule:evenodd;stroke:none"
       id="path62" /><path
       d="m 223.739,320.648 c -9.568,0 -17.323,-4.605 -17.323,-10.285 0,-5.681 7.755,-10.287 17.323,-10.287 9.566,0 17.322,4.606 17.322,10.287 0,5.68 -7.756,10.285 -17.322,10.285 m 0,6.935 c 16.015,0 28.999,-7.711 28.999,-17.22 0,-9.511 -12.984,-17.221 -28.999,-17.221 -16.016,0 -29.001,7.71 -29.001,17.221 0,9.509 12.985,17.22 29.001,17.22"
       style="fill:#240d05;fill-opacity:1;fill-rule:evenodd;stroke:none"
       id="path64" /><path
       d="m 437.424,280.895 c 0,-21.632 -29.533,-39.169 -65.965,-39.169 -36.43,0 -65.963,17.537 -65.963,39.169 l -19.712,149.293 85.675,9.152 85.677,-9.152 z"
       style="fill:#94ab13;fill-opacity:1;fill-rule:evenodd;stroke:none"
       id="path66" /><path
       d="m 371.459,486.171 c 31.975,0 60.225,-9.452 77.273,-23.907 l 6.029,0.728 7.417,-17.51 h -10e-4 c 2.32,-4.861 3.561,-9.992 3.561,-15.294 0,-30.919 -42.209,-55.983 -94.279,-55.983 -52.068,0 -94.278,25.064 -94.278,55.983 0,5.302 1.241,10.433 3.562,15.294 h -10e-4 l 7.417,17.51 6.029,-0.728 c 17.046,14.455 45.298,23.907 77.271,23.907"
       style="fill:#bad526;fill-opacity:1;fill-rule:evenodd;stroke:none"
       id="path68" /><path
       d="m 371.459,400.174 c 47.189,0 85.677,22.853 85.677,50.874 0,28.021 -38.488,50.876 -85.677,50.876 -47.188,0 -85.673,-22.855 -85.673,-50.876 0,-28.021 38.485,-50.874 85.673,-50.874"
       style="fill:#cfe35d;fill-opacity:1;fill-rule:evenodd;stroke:none"
       id="path70" /><path
       d="m 347.941,256.65 95.17,54.947 c 30.006,17.323 68.73,6.947 86.054,-23.059 17.323,-30.006 6.948,-68.73 -23.059,-86.054 l -95.169,-54.946 c -30.006,-17.326 -68.731,-6.947 -86.054,23.059 -17.325,30.006 -6.947,68.73 23.058,86.053"
       style="fill:#e8b73c;fill-opacity:1;fill-rule:evenodd;stroke:none"
       id="path72" /><path
       d="m 316.223,217.005 177.612,102.544 c 15.337,8.855 35.129,3.551 43.982,-11.785 8.267,-14.317 4.193,-32.517 -8.861,-42.076 -15.575,4.151 -32.722,2.409 -47.697,-6.238 l -95.17,-54.946 c -15.06,-8.694 -25.172,-22.78 -29.321,-38.449 l -8.348,-4.818 c -15.336,-8.855 -35.128,-3.551 -43.982,11.785 -8.855,15.336 -3.552,35.128 11.785,43.983"
       style="fill:#bd532f;fill-opacity:1;fill-rule:evenodd;stroke:none"
       id="path74" /><path
       d="m 336.506,210.99 c -2.707,-0.364 -5.197,1.536 -5.562,4.243 -0.363,2.708 1.536,5.197 4.244,5.562 7.343,0.996 14.709,1.459 22.094,1.438 5.126,-0.013 10.197,-0.251 15.218,-0.691 l -3.699,17.862 c -0.545,2.675 1.181,5.285 3.856,5.832 0.11,0.024 0.221,0.04 0.329,0.056 8.345,1.135 16.626,1.819 24.819,1.879 5.394,0.039 10.71,-0.192 15.93,-0.74 l -5.151,14.538 c -0.909,2.578 0.443,5.406 3.022,6.314 0.378,0.134 0.76,0.219 1.142,0.259 9.066,1.28 18.103,2.004 27.103,2.113 6.578,0.08 13.097,-0.171 19.556,-0.776 l -5.14,19.504 c -0.697,2.644 0.881,5.35 3.525,6.047 0.339,0.089 0.678,0.139 1.012,0.157 8.994,0.545 18.151,0.793 27.569,0.569 6.41,-0.15 12.896,-0.521 19.472,-1.169 l -6.756,13.084 c -1.253,2.429 -0.298,5.412 2.131,6.665 2.428,1.251 5.414,0.296 6.666,-2.131 l 11.024,-21.349 c 0.447,-0.872 0.644,-1.882 0.503,-2.927 -0.363,-2.707 -2.853,-4.607 -5.561,-4.242 -9.476,1.301 -18.691,1.976 -27.713,2.188 -6.964,0.166 -13.876,0.055 -20.751,-0.253 l 5.436,-20.622 c 0.158,-0.61 0.206,-1.256 0.117,-1.919 -0.363,-2.708 -2.853,-4.608 -5.561,-4.245 -8.4,1.148 -16.873,1.641 -25.413,1.537 -6.584,-0.08 -13.252,-0.517 -19.997,-1.287 l 5.748,-16.218 c 0.342,-0.835 0.46,-1.774 0.292,-2.728 -0.47,-2.697 -3.038,-4.501 -5.736,-4.031 -7.35,1.299 -14.838,1.835 -22.431,1.779 -5.976,-0.043 -12.074,-0.451 -18.269,-1.144 l 3.907,-18.867 c 0.182,-0.625 0.244,-1.298 0.161,-1.985 -0.333,-2.718 -2.805,-4.652 -5.524,-4.321 -7.052,0.883 -14.002,1.363 -20.836,1.381 -6.904,0.017 -13.83,-0.417 -20.776,-1.362"
       style="fill:#ffd97a;fill-opacity:1;fill-rule:evenodd;stroke:none"
       id="path76" /><path
       d="m 197.371,231.414 c 39.601,0 72.921,-15.956 82.736,-37.63 l 7.696,1.217 -4.928,-17.642 c -7.2,-25.772 -39.988,-47.695 -85.504,-47.695 -45.517,0 -78.303,21.923 -85.505,47.695 l -4.928,17.642 7.697,-1.217 c 9.816,21.674 43.136,37.63 82.736,37.63"
       style="fill:#d9a625;fill-opacity:1;fill-rule:evenodd;stroke:none"
       id="path78" /><path
       d="m 197.371,148.454 c 50.312,0 91.347,24.364 91.347,54.24 0,29.875 -41.035,54.243 -91.347,54.243 -50.31,0 -91.345,-24.368 -91.345,-54.243 0,-29.876 41.035,-54.24 91.345,-54.24"
       style="fill:#fad578;fill-opacity:1;fill-rule:evenodd;stroke:none"
       id="path80" /><path
       d="m 197.546,155.441 c 43.813,0 79.547,19.497 79.547,43.4 0,23.902 -35.734,43.397 -79.547,43.397 -43.813,0 -79.547,-19.495 -79.547,-43.397 0,-23.903 35.734,-43.4 79.547,-43.4"
       style="fill:#663c12;fill-opacity:1;fill-rule:evenodd;stroke:none"
       id="path82" /><path
       d="m 286.472,229.566 1.05,-1.463 6.124,-3.326 c 2.132,-1.156 3.191,-3.622 2.563,-5.964 -0.627,-2.341 -2.778,-3.948 -5.201,-3.884 -2.902,0.077 -5.612,-1.442 -7.063,-3.955 -1.451,-2.514 -1.411,-5.619 0.106,-8.095 1.683,-2.746 2.166,-6.066 1.331,-9.176 -0.835,-3.113 -2.911,-5.745 -5.741,-7.283 -3.583,-1.945 -7.572,-3.015 -11.645,-3.121 -7.379,-0.193 -14.159,-4.108 -18.015,-10.401 -5.489,-8.957 -17.031,-12.049 -26.262,-7.036 -12.518,6.796 -27.624,6.796 -40.142,0 -9.253,-5.025 -20.822,-1.925 -26.324,7.054 -4.47,7.295 -12.328,11.833 -20.88,12.056 -8.131,0.213 -15.602,4.525 -19.85,11.46 -2.836,4.628 -6.727,8.52 -11.356,11.357 -6.595,4.039 -8.768,12.598 -4.901,19.296 3.866,6.698 12.364,9.095 19.162,5.404 2.338,-0.091 85.069,-5.671 106.498,-4.211 z"
       style="fill:#5f992c;fill-opacity:1;fill-rule:evenodd;stroke:none"
       id="path84" /><path
       d="m 197.371,303.393 c 63.047,0 91.345,-40.733 91.345,-70.69 0,-29.957 -40.898,-54.241 -91.345,-54.241 -50.449,0 -91.345,24.284 -91.345,54.241 0,29.957 28.298,70.69 91.345,70.69"
       style="fill:#d9a625;fill-opacity:1;fill-rule:evenodd;stroke:none"
       id="path86" /><path
       d="m 216.326,273.952 c 1.927,0 3.488,-0.836 3.488,-1.866 0,-1.032 -1.561,-1.869 -3.488,-1.869 -1.925,0 -3.487,0.837 -3.487,1.869 0,1.03 1.562,1.866 3.487,1.866 m 6.977,13.282 c 1.925,0 3.489,-0.837 3.489,-1.867 0,-1.031 -1.564,-1.866 -3.489,-1.866 -1.925,0 -3.489,0.835 -3.489,1.866 0,1.03 1.564,1.867 3.489,1.867 m -58.774,-7.508 c 1.928,0 3.49,-0.836 3.49,-1.867 0,-1.03 -1.562,-1.868 -3.49,-1.868 -1.925,0 -3.487,0.838 -3.487,1.868 0,1.031 1.562,1.867 3.487,1.867 m 9.626,13.998 c 1.925,0 3.487,-0.834 3.487,-1.867 0,-1.03 -1.562,-1.866 -3.487,-1.866 -1.927,0 -3.488,0.836 -3.488,1.866 0,1.033 1.561,1.867 3.488,1.867 m 8.748,-19.772 c 1.928,0 3.49,-0.836 3.49,-1.866 0,-1.032 -1.562,-1.869 -3.49,-1.869 -1.925,0 -3.487,0.837 -3.487,1.869 0,1.03 1.562,1.866 3.487,1.866 m 14.876,23.099 c 1.926,0 3.488,-0.745 3.488,-1.663 0,-0.918 -1.562,-1.664 -3.488,-1.664 -1.927,0 -3.489,0.746 -3.489,1.664 0,0.918 1.562,1.663 3.489,1.663 m 18.969,1.99 c 2.158,0 3.909,-0.447 3.909,-0.995 0,-0.55 -1.751,-0.995 -3.909,-0.995 -2.159,0 -3.909,0.445 -3.909,0.995 0,0.548 1.75,0.995 3.909,0.995 m -18.444,-36.988 c 2.217,0 4.015,-1.164 4.015,-2.598 0,-1.434 -1.798,-2.599 -4.015,-2.599 -2.217,0 -4.014,1.165 -4.014,2.599 0,1.434 1.797,2.598 4.014,2.598 m 41.272,10.033 c 1.926,0 3.488,-0.994 3.488,-2.219 0,-1.222 -1.562,-2.214 -3.488,-2.214 -1.925,0 -3.487,0.992 -3.487,2.214 0,1.225 1.562,2.219 3.487,2.219 m 9.504,11.415 c 2.216,0 4.015,-0.745 4.015,-1.663 0,-0.918 -1.799,-1.664 -4.015,-1.664 -2.216,0 -4.015,0.746 -4.015,1.664 0,0.918 1.799,1.663 4.015,1.663 M 141.957,269.867 c 2.218,0 4.015,-0.965 4.015,-2.157 0,-1.192 -1.797,-2.157 -4.015,-2.157 -2.216,0 -4.014,0.965 -4.014,2.157 0,1.192 1.798,2.157 4.014,2.157 m 18.725,-7.814 c 2.217,0 4.013,-0.993 4.013,-2.218 0,-1.223 -1.796,-2.216 -4.013,-2.216 -2.218,0 -4.014,0.993 -4.014,2.216 0,1.225 1.796,2.218 4.014,2.218 m -2.557,29.804 c 2.16,0 3.909,-0.598 3.909,-1.339 0,-0.743 -1.749,-1.343 -3.909,-1.343 -2.157,0 -3.909,0.6 -3.909,1.343 0,0.741 1.752,1.339 3.909,1.339 m -20.018,-10.019 c 1.925,0 3.488,-0.747 3.488,-1.668 0,-0.923 -1.563,-1.668 -3.488,-1.668 -1.925,0 -3.488,0.745 -3.488,1.668 0,0.921 1.563,1.668 3.488,1.668 m 90.639,-24.219 c 3.004,0 5.442,-1.163 5.442,-2.597 0,-1.435 -2.438,-2.598 -5.442,-2.598 -3.007,0 -5.443,1.163 -5.443,2.598 0,1.434 2.436,2.597 5.443,2.597 m 32.379,10.034 c 2.218,0 4.014,-1.131 4.014,-2.523 0,-1.391 -1.796,-2.52 -4.014,-2.52 -2.218,0 -4.014,1.129 -4.014,2.52 0,1.392 1.796,2.523 4.014,2.523 M 150.489,248.978 c 2.497,0 4.519,-1.057 4.519,-2.36 0,-1.302 -2.022,-2.356 -4.519,-2.356 -2.495,0 -4.517,1.054 -4.517,2.356 0,1.303 2.022,2.36 4.517,2.36 m 32.595,3.446 c 3.007,0 5.443,-1.3 5.443,-2.902 0,-1.604 -2.436,-2.903 -5.443,-2.903 -3.004,0 -5.442,1.299 -5.442,2.903 0,1.602 2.438,2.902 5.442,2.902 m 17.775,33.601 c 1.927,0 3.488,-0.837 3.488,-1.865 0,-1.032 -1.561,-1.868 -3.488,-1.868 -1.927,0 -3.488,0.836 -3.488,1.868 0,1.028 1.561,1.865 3.488,1.865"
       style="fill:#fad578;fill-opacity:1;fill-rule:evenodd;stroke:none"
       id="path88" /><path
       d="m 356.312,459.889 15.147,-7.393 15.148,7.393 -12.667,-8.841 12.667,-8.839 -15.148,7.392 -15.147,-7.392 12.667,8.839 z"
       style="fill:#bad526;fill-opacity:1;fill-rule:evenodd;stroke:none"
       id="path90" /></g></svg>
